REM DIRINDEX 1\2\4,1\2\5,1\2\6,1\3\7,1\3\8,1\3\9,1\3\10
REM DIRNAME folder01,folder02,folder03,folder04,folder05,folder06,folder07,folder08,folder09,folder10
TITLE ""
FILE "b_66.mp3" MP3
  TRACK 01 AUDIO
    TITLE "0:"
    INDEX 01 00:00:00
  TRACK 02 AUDIO
    TITLE "10:cjc058_4897"
    INDEX 01 00:00:15
  TRACK 03 AUDIO
    TITLE "0:"
    INDEX 01 00:02:47
  TRACK 04 AUDIO
    TITLE "7:cjc058_4898"
    INDEX 01 00:03:14
  TRACK 05 AUDIO
    TITLE "0:"
    INDEX 01 00:04:72
  TRACK 06 AUDIO
    TITLE "8:cjc058_4899"
    INDEX 01 00:05:26
  TRACK 07 AUDIO
    TITLE "0:"
    INDEX 01 00:09:45
  TRACK 08 AUDIO
    TITLE "9:cjc058_4900"
    INDEX 01 00:10:12
  TRACK 09 AUDIO
    TITLE "0:"
    INDEX 01 00:14:41
  TRACK 10 AUDIO
    TITLE "7:cjc058_4901"
    INDEX 01 00:15:46
  TRACK 11 AUDIO
    TITLE "0:"
    INDEX 01 00:17:72
  TRACK 12 AUDIO
    TITLE "8:cjc058_4902"
    INDEX 01 00:18:27
  TRACK 13 AUDIO
    TITLE "0:"
    INDEX 01 00:21:51
  TRACK 14 AUDIO
    TITLE "9:cjc058_4903"
    INDEX 01 00:22:19
  TRACK 15 AUDIO
    TITLE "0:"
    INDEX 01 00:30:18
  TRACK 16 AUDIO
    TITLE "7:cjc058_4904"
    INDEX 01 00:31:18
  TRACK 17 AUDIO
    TITLE "0:"
    INDEX 01 00:32:72
  TRACK 18 AUDIO
    TITLE "8:cjc058_4905"
    INDEX 01 00:33:26
  TRACK 19 AUDIO
    TITLE "0:"
    INDEX 01 00:35:17
  TRACK 20 AUDIO
    TITLE "9:cjc058_4906"
    INDEX 01 00:35:59
  TRACK 21 AUDIO
    TITLE "0:"
    INDEX 01 00:39:58
  TRACK 22 AUDIO
    TITLE "7:cjc058_4907"
    INDEX 01 00:40:62
  TRACK 23 AUDIO
    TITLE "0:"
    INDEX 01 00:43:03
  TRACK 24 AUDIO
    TITLE "8:cjc058_4908"
    INDEX 01 00:43:33
  TRACK 25 AUDIO
    TITLE "0:"
    INDEX 01 00:45:57
  TRACK 26 AUDIO
    TITLE "9:cjc058_4909"
    INDEX 01 00:46:23
  TRACK 27 AUDIO
    TITLE "0:"
    INDEX 01 00:49:29
  TRACK 28 AUDIO
    TITLE "7:cjc058_4910"
    INDEX 01 00:50:33
  TRACK 29 AUDIO
    TITLE "0:"
    INDEX 01 00:53:21
  TRACK 30 AUDIO
    TITLE "8:cjc058_4911"
    INDEX 01 00:53:51
  TRACK 31 AUDIO
    TITLE "0:"
    INDEX 01 00:56:33
  TRACK 32 AUDIO
    TITLE "9:cjc058_4912"
    INDEX 01 00:56:72
  TRACK 33 AUDIO
    TITLE "0:"
    INDEX 01 01:00:68
  TRACK 34 AUDIO
    TITLE "7:cjc058_4913"
    INDEX 01 01:01:74
  TRACK 35 AUDIO
    TITLE "0:"
    INDEX 01 01:04:09
  TRACK 36 AUDIO
    TITLE "8:cjc058_4914"
    INDEX 01 01:04:39
  TRACK 37 AUDIO
    TITLE "0:"
    INDEX 01 01:06:36
  TRACK 38 AUDIO
    TITLE "9:cjc058_4915"
    INDEX 01 01:07:04
  TRACK 39 AUDIO
    TITLE "0:"
    INDEX 01 01:10:14
  TRACK 40 AUDIO
    TITLE "7:cjc058_4916"
    INDEX 01 01:11:21
  TRACK 41 AUDIO
    TITLE "0:"
    INDEX 01 01:13:20
  TRACK 42 AUDIO
    TITLE "8:cjc058_4917"
    INDEX 01 01:13:51
  TRACK 43 AUDIO
    TITLE "0:"
    INDEX 01 01:15:11
  TRACK 44 AUDIO
    TITLE "9:cjc058_4918"
    INDEX 01 01:15:52
  TRACK 45 AUDIO
    TITLE "0:"
    INDEX 01 01:18:51
  TRACK 46 AUDIO
    TITLE "7:cjc058_4919"
    INDEX 01 01:19:56
  TRACK 47 AUDIO
    TITLE "0:"
    INDEX 01 01:22:35
  TRACK 48 AUDIO
    TITLE "8:cjc058_4920"
    INDEX 01 01:22:66
  TRACK 49 AUDIO
    TITLE "0:"
    INDEX 01 01:25:15
  TRACK 50 AUDIO
    TITLE "9:cjc058_4921"
    INDEX 01 01:25:57
  TRACK 51 AUDIO
    TITLE "0:"
    INDEX 01 01:30:50
  TRACK 52 AUDIO
    TITLE "7:cjc058_4922"
    INDEX 01 01:31:55
  TRACK 53 AUDIO
    TITLE "0:"
    INDEX 01 01:34:20
  TRACK 54 AUDIO
    TITLE "8:cjc058_4923"
    INDEX 01 01:34:50
  TRACK 55 AUDIO
    TITLE "0:"
    INDEX 01 01:37:73
  TRACK 56 AUDIO
    TITLE "9:cjc058_4924"
    INDEX 01 01:38:36
  TRACK 57 AUDIO
    TITLE "0:"
    INDEX 01 01:42:45
  TRACK 58 AUDIO
    TITLE "7:cjc058_4925"
    INDEX 01 01:43:51
  TRACK 59 AUDIO
    TITLE "0:"
    INDEX 01 01:45:67
  TRACK 60 AUDIO
    TITLE "8:cjc058_4926"
    INDEX 01 01:46:21
  TRACK 61 AUDIO
    TITLE "0:"
    INDEX 01 01:49:24
  TRACK 62 AUDIO
    TITLE "9:cjc058_4927"
    INDEX 01 01:49:67
  TRACK 63 AUDIO
    TITLE "0:"
    INDEX 01 01:54:23
  TRACK 64 AUDIO
    TITLE "7:cjc058_4928"
    INDEX 01 01:55:28
  TRACK 65 AUDIO
    TITLE "0:"
    INDEX 01 01:57:33
  TRACK 66 AUDIO
    TITLE "8:cjc058_4929"
    INDEX 01 01:57:62
  TRACK 67 AUDIO
    TITLE "0:"
    INDEX 01 02:03:02
  TRACK 68 AUDIO
    TITLE "9:cjc058_4930"
    INDEX 01 02:03:41
  TRACK 69 AUDIO
    TITLE "0:"
    INDEX 01 02:06:18
  TRACK 70 AUDIO
    TITLE "7:cjc058_4931"
    INDEX 01 02:07:22
  TRACK 71 AUDIO
    TITLE "0:"
    INDEX 01 02:09:21
  TRACK 72 AUDIO
    TITLE "8:cjc058_4932"
    INDEX 01 02:09:50
  TRACK 73 AUDIO
    TITLE "0:"
    INDEX 01 02:11:66
  TRACK 74 AUDIO
    TITLE "9:cjc058_4933"
    INDEX 01 02:12:33
  TRACK 75 AUDIO
    TITLE "0:"
    INDEX 01 02:17:06
  TRACK 76 AUDIO
    TITLE "7:cjc058_4934"
    INDEX 01 02:18:12
  TRACK 77 AUDIO
    TITLE "0:"
    INDEX 01 02:21:08
  TRACK 78 AUDIO
    TITLE "8:cjc058_4935"
    INDEX 01 02:21:39
  TRACK 79 AUDIO
    TITLE "0:"
    INDEX 01 02:24:12
  TRACK 80 AUDIO
    TITLE "9:cjc058_4936"
    INDEX 01 02:24:53
  TRACK 81 AUDIO
    TITLE "0:"
    INDEX 01 02:30:66
  TRACK 82 AUDIO
    TITLE "7:cjc058_4937"
    INDEX 01 02:31:73
  TRACK 83 AUDIO
    TITLE "0:"
    INDEX 01 02:33:74
  TRACK 84 AUDIO
    TITLE "8:cjc058_4938"
    INDEX 01 02:34:30
  TRACK 85 AUDIO
    TITLE "0:"
    INDEX 01 02:36:25
  TRACK 86 AUDIO
    TITLE "9:cjc058_4939"
    INDEX 01 02:36:68
  TRACK 87 AUDIO
    TITLE "0:"
    INDEX 01 02:39:57
  TRACK 88 AUDIO
    TITLE "7:cjc058_4940"
    INDEX 01 02:40:58
  TRACK 89 AUDIO
    TITLE "0:"
    INDEX 01 02:42:59
  TRACK 90 AUDIO
    TITLE "8:cjc058_4941"
    INDEX 01 02:43:14
  TRACK 91 AUDIO
    TITLE "0:"
    INDEX 01 02:45:03
  TRACK 92 AUDIO
    TITLE "9:cjc058_4942"
    INDEX 01 02:45:44
  TRACK 93 AUDIO
    TITLE "0:"
    INDEX 01 02:48:44
  TRACK 94 AUDIO
    TITLE "7:cjc058_4943"
    INDEX 01 02:49:49
  TRACK 95 AUDIO
    TITLE "0:"
    INDEX 01 02:52:18
  TRACK 96 AUDIO
    TITLE "8:cjc058_4944"
    INDEX 01 02:52:48
  TRACK 97 AUDIO
    TITLE "0:"
    INDEX 01 02:56:30
  TRACK 98 AUDIO
    TITLE "9:cjc058_4945"
    INDEX 01 02:56:73
  TRACK 99 AUDIO
    TITLE "0:"
    INDEX 01 03:01:00
  TRACK 100 AUDIO
    TITLE "7:cjc058_4946"
    INDEX 01 03:02:07
  TRACK 101 AUDIO
    TITLE "0:"
    INDEX 01 03:04:53
  TRACK 102 AUDIO
    TITLE "8:cjc058_4947"
    INDEX 01 03:05:09
  TRACK 103 AUDIO
    TITLE "0:"
    INDEX 01 03:09:05
  TRACK 104 AUDIO
    TITLE "9:cjc058_4948"
    INDEX 01 03:09:48
  TRACK 105 AUDIO
    TITLE "0:"
    INDEX 01 03:13:71
  TRACK 106 AUDIO
    TITLE "7:cjc058_4949"
    INDEX 01 03:15:02
  TRACK 107 AUDIO
    TITLE "0:"
    INDEX 01 03:17:38
  TRACK 108 AUDIO
    TITLE "8:cjc058_4950"
    INDEX 01 03:17:69
  TRACK 109 AUDIO
    TITLE "0:"
    INDEX 01 03:20:72
  TRACK 110 AUDIO
    TITLE "9:cjc058_4951"
    INDEX 01 03:21:38
  TRACK 111 AUDIO
    TITLE "0:"
    INDEX 01 03:25:12
  TRACK 112 AUDIO
    TITLE "7:cjc058_4952"
    INDEX 01 03:26:17
  TRACK 113 AUDIO
    TITLE "0:"
    INDEX 01 03:28:67
  TRACK 114 AUDIO
    TITLE "8:cjc058_4953"
    INDEX 01 03:29:21
  TRACK 115 AUDIO
    TITLE "0:"
    INDEX 01 03:32:12
  TRACK 116 AUDIO
    TITLE "9:cjc058_4954"
    INDEX 01 03:32:53
  TRACK 117 AUDIO
    TITLE "0:"
    INDEX 01 03:36:59
  TRACK 118 AUDIO
    TITLE "7:cjc058_4955"
    INDEX 01 03:37:66
  TRACK 119 AUDIO
    TITLE "0:"
    INDEX 01 03:39:63
  TRACK 120 AUDIO
    TITLE "8:cjc058_4956"
    INDEX 01 03:40:19
  TRACK 121 AUDIO
    TITLE "0:"
    INDEX 01 03:42:30
  TRACK 122 AUDIO
    TITLE "9:cjc058_4957"
    INDEX 01 03:42:71
  TRACK 123 AUDIO
    TITLE "0:"
    INDEX 01 03:49:69
  TRACK 124 AUDIO
    TITLE "7:cjc058_4958"
    INDEX 01 03:50:73
  TRACK 125 AUDIO
    TITLE "0:"
    INDEX 01 03:52:56
  TRACK 126 AUDIO
    TITLE "8:cjc058_4959"
    INDEX 01 03:53:12
  TRACK 127 AUDIO
    TITLE "0:"
    INDEX 01 03:55:48
  TRACK 128 AUDIO
    TITLE "9:cjc058_4960"
    INDEX 01 03:56:14
  TRACK 129 AUDIO
    TITLE "0:"
    INDEX 01 04:00:42
